HIERARCHY
ROOT Hips
{
  OFFSET 0 0 0
  CHANNELS 6 Xposition Yposition Zposition Zrotation Xrotation Yrotation
  JOINT Spine
  {
    OFFSET 0 10.1816 0.131521
    CHANNELS 3 Zrotation Xrotation Yrotation
    JOINT Spine1
    {
      OFFSET 0 10.0835 -1.0008
      CHANNELS 3 Zrotation Xrotation Yrotation
      JOINT Spine2
      {
        OFFSET 0 9.10001 -1.37342
        CHANNELS 3 Zrotation Xrotation Yrotation
        JOINT Neck
        {
          OFFSET 0 16.6717 -2.51617
          CHANNELS 3 Zrotation Xrotation Yrotation
          JOINT Head
          {
            OFFSET 0 9.61788 1.68501
            CHANNELS 3 Zrotation Xrotation Yrotation
            End Site
            {
              OFFSET 0 0 0
            }
          }
        }
        JOINT LeftShoulder
        {
          OFFSET 4.57045 10.946 -2.62799
          CHANNELS 3 Zrotation Xrotation Yrotation
          JOINT LeftArm
          {
            OFFSET 10.5924 -0.524583 -2.23212
            CHANNELS 3 Zrotation Xrotation Yrotation
            JOINT LeftForeArm
            {
              OFFSET 27.8415 -8.94286e-05 3.74589e-05
              CHANNELS 3 Zrotation Xrotation Yrotation
              JOINT LeftHand
              {
                OFFSET 28.3288 -1.74407e-05 3.78045e-05
                CHANNELS 3 Zrotation Xrotation Yrotation
                End Site
                {
                  OFFSET 0 0 0
                }
              }
            }
          }
        }
        JOINT RightShoulder
        {
          OFFSET -4.56997 10.9462 -2.62802
          CHANNELS 3 Zrotation Xrotation Yrotation
          JOINT RightArm
          {
            OFFSET -10.5928 -0.524798 -2.2321
            CHANNELS 3 Zrotation Xrotation Yrotation
            JOINT RightForeArm
            {
              OFFSET -27.8415 -3.30792e-05 1.16763e-05
              CHANNELS 3 Zrotation Xrotation Yrotation
              JOINT RightHand
              {
                OFFSET -28.3288 0 5.5816e-05
                CHANNELS 3 Zrotation Xrotation Yrotation
                End Site
                {
                  OFFSET 0 0 0
                }
              }
            }
          }
        }
      }
    }
  }
  JOINT LeftUpLeg
  {
    OFFSET 8.20778 -6.75171 -1.59956
    CHANNELS 3 Zrotation Xrotation Yrotation
    JOINT LeftLeg
    {
      OFFSET 0 -44.3705 0.284643
      CHANNELS 3 Zrotation Xrotation Yrotation
      JOINT LeftFoot
      {
        OFFSET 0 -44.4279 -2.98219
        CHANNELS 3 Zrotation Xrotation Yrotation
        JOINT LeftToeBase
        {
          OFFSET 0 -8.72867 10.7106
          CHANNELS 3 Zrotation Xrotation Yrotation
          End Site
          {
            OFFSET 0 0 0
          }
        }
      }
    }
  }
  JOINT RightUpLeg
  {
    OFFSET -8.2078 -6.75166 -1.59956
    CHANNELS 3 Zrotation Xrotation Yrotation
    JOINT RightLeg
    {
      OFFSET 0 -44.3705 0.286156
      CHANNELS 3 Zrotation Xrotation Yrotation
      JOINT RightFoot
      {
        OFFSET 0 -44.4277 -2.98379
        CHANNELS 3 Zrotation Xrotation Yrotation
        JOINT RightToeBase
        {
          OFFSET 0 -8.72867 10.7106
          CHANNELS 3 Zrotation Xrotation Yrotation
          End Site
          {
            OFFSET 0 0 0
          }
        }
      }
    }
  }
}
MOTION
Frames:	6
Frame Time:	0.0333333
0.170038 35.2548 -3.29966 172.586 -64.9103 178.769 -2.68701 53.984 -5.86694 2.99508 14.3047 -3.28437 3.09799 14.4132 -2.30664 1.37845 8.08355 -0.0364107 7.28945 28.271 -0.326909 -0.617488 5.84664 -2.75254 -99.0082 -14.4428 34.0435 -0.000218247 5.92377e-06 -34.4332 98.4295 19.013 -20.6918 -1.61494 0.566461 -0.00414735 88.9414 -10.0422 -30.0709 -8.2732e-08 -3.30034e-06 41.6057 -102.35 36.2892 40.0062 70.4931 -27.3591 58.7382 3.1911 22.1336 -4.82415 -0.929095 29.3609 0.508733 -1.42881e-05 0.144989 -1.13865e-06 -57.3133 -27.6822 -41.2674 -4.93721 7.75775 -9.37258 10.8045 -10.5929 -16.2566 -1.62152e-05 3.859 4.91043e-06 
3.13986 35.2086 -5.03072 167.409 -62.4831 161.821 -13.031 57.2275 4.6575 2.40797 13.9229 -1.62266 2.33517 13.9614 -0.577228 2.5924 7.62923 -0.839004 15.1191 23.7967 -9.00425 -2.1879 5.88814 -7.92022 -96.0282 -26.5826 38.0329 -0.000195316 -5.60699e-07 -41.1278 91.6502 24.5986 -38.2551 -0.481995 3.39951 -1.24959 85.3304 -15.5133 -26.5425 -9.62048e-06 3.92186e-06 43.4825 -104.918 35.4123 44.0921 74.2313 -39.2285 61.7785 0.492805 38.5857 -3.07122 -3.44076 18.8586 -0.417955 -1.89812e-06 -0.697947 4.39444e-06 -48.4019 -22.7225 -38.2724 -8.36123 14.7192 -7.50528 11.5149 -7.10147 -11.9173 -1.67531e-06 -5.31622 2.6432e-06 
6.34969 35.5404 -7.67832 162.666 -62.7507 145.351 -19.8568 58.9812 12.4552 1.7854 13.0703 -0.031982 1.53927 13.0562 1.0149 3.11661 7.43313 -1.48628 18.561 20.9919 -15.0592 -3.74209 5.46401 -15.4545 -96.4985 -28.0346 38.4231 -0.000195646 -9.62044e-06 -45.8237 71.1245 33.3021 -29.3077 1.14111 6.24555 -4.33199 81.908 -18.3804 -20.2048 -4.3557e-06 -5.14656e-06 42.7083 -107.128 33.1902 45.1246 70.4226 -50.0935 59.1475 0.677564 41.6808 -0.71589 -2.91331 12.9853 -0.238479 -1.29903e-05 -0.0452839 -7.14576e-06 -41.053 -16.2364 -36.5191 -9.57698 22.3388 0.0198874 6.46876 -4.00441 2.89279 1.25698e-05 -10.4241 1.64983e-06 
9.15026 36.1096 -11.5983 153.154 -66.4038 124.793 -21.4456 59.2437 14.7397 1.49415 11.9464 1.121 1.09915 11.9147 2.20508 2.85485 7.40145 -1.9197 17.1929 19.1169 -18.6229 -7.56974 4.98928 -23.2279 -80.2936 -36.0605 45.0933 -0.00020551 4.69497e-06 -70.3653 29.4444 27.4522 5.44278 3.53114 8.1503 -6.24286 76.6962 -20.0583 -12.4826 -1.74874e-05 -7.43985e-06 40.7278 -109.524 30.3782 43.6944 60.5749 -57.3681 49.383 3.93966 34.1416 1.36199 -2.85548 18.1181 0.450426 4.66921e-06 0.553322 -5.33758e-06 -37.8473 -15.7955 -34.2803 -10.3908 39.5573 2.42297 3.08473 -8.63675 9.42753 -6.76651e-06 -6.43442 2.92267e-07 
11.0364 37.4691 -16.6736 129.598 -70.719 91.717 -19.0616 57.8896 12.3194 1.87464 11.1546 1.58511 1.37553 11.1405 2.83472 2.14716 7.20434 -2.14864 13.3659 16.1159 -20.9956 -12.3503 5.6957 -25.8306 -60.2024 -40.3463 41.0969 -0.000191666 -1.05141e-06 -78.1046 -11.6269 9.90271 10.8131 6.79783 8.4734 -4.37415 68.1805 -22.694 -5.49313 -1.06343e-05 -8.77944e-06 38.9958 -111.919 27.4614 41.0831 54.7416 -59.7548 42.173 6.63887 25.5991 -0.421452 -6.26681 22.7425 1.43505 7.19595e-06 -0.306858 -1.40358e-06 -35.2574 -20.7794 -33.6152 -12.4658 57.167 1.76041 7.35945 -14.9936 5.89405 1.27672e-05 0.893286 3.26861e-05 
11.5764 40.222 -22.684 91.5638 -68.8971 46.5949 -14.185 55.3504 7.65699 2.92975 11.1791 1.48229 2.35942 11.2011 2.98448 1.41268 6.55977 -2.26402 10.1001 10.9445 -24.1329 -16.3116 9.83387 -20.2797 -47.7839 -44.9441 26.8572 -0.000274844 -5.83407e-06 -93.6536 -16.4279 16.9896 15.5669 12.265 7.69908 1.59641 54.6609 -27.3096 -1.73979 -1.15116e-05 -6.31756e-06 39.3353 -108.609 25.4439 37.7952 64.1275 -62.7721 48.639 8.62252 31.366 -3.52128 -8.92176 18.9846 1.96925 -1.56466e-06 -1.87778 3.75688e-06 -28.2839 -24.3517 -35.6186 -20.5381 69.9267 16.9049 5.98937 2.42173 7.06605 -1.4056e-05 3.9217 4.44879e-06 
